Coordinates
version=1
nRows=8
nColumns=33
inDegrees=yes

Units are S.I. units (second, meters, Newtons, ...)
Angles are in degrees.

endheader
time	ground_thorax_rot_x	ground_thorax_rot_y	ground_thorax_rot_z	ground_thorax_tx	ground_thorax_ty	ground_thorax_tz	clav_prot_r	clav_elev_r	scapula_abduction_r	scapula_elevation_r	scapula_upward_rot_r	scapula_winging_r	shoulder_elv_r	plane_of_elev_r	axial_rot_r	elbow_flexion_r	pro_sup_r	wrist_flex_r	wrist_dev_r	clav_prot_l	clav_elev_l	scapula_abduction_l	scapula_elevation_l	scapula_upward_rot_l	scapula_winging_l	shoulder_elv_l	plane_of_elev_l	axial_rot_l	elbow_flexion_l	pro_sup_l	wrist_flex_l	wrist_dev_l
      6.60000000	    -25.62484668	    -34.05015080	     48.50201085	    -77.49864531	    775.44184844	      9.14250458	      7.67723110	    -45.00000000	     36.74415843	    -45.00000000	    -44.64542881	   2063.32902563	  -2636.04079134	    150.13643336	   -106.03307499	   1090.30256237	     22.64686070	     17.21696443	     11.51830439	     13.81305946	     37.11533817	    -30.37202501	    -45.00000000	    -45.00000000	  -2083.69561749	    981.58077583	    136.09188457	   -179.99999979	    726.41589866	     40.99965026	     10.99247095	    -21.22667013
      6.61000000	    -25.30338732	    -34.15084842	     48.99445131	    -74.63355866	    775.00769733	      9.10535176	      7.59510448	    -45.00000000	     36.58498923	    -45.00000000	    -44.81745560	   2063.50517470	  -2636.19834383	    150.25851841	   -105.82124534	   1090.13822397	     23.91004543	     17.18610791	     11.35965383	     13.85961370	     37.15774175	    -30.20448425	    -45.00000000	    -45.00000000	  -2083.90865786	    981.44782600	    136.17418109	   -179.99999979	    726.29872767	     41.41572672	     10.97459206	    -21.23822090
      6.62000000	    -24.94750367	    -34.20944999	     49.44475180	    -71.95772430	    774.66729907	      9.05092662	      7.62990757	    -45.00000000	     36.69276511	    -45.00000000	    -44.58046955	   2063.56180099	  -2636.35316295	    150.47667994	   -105.28310222	   1090.11072851	     25.14386170	     17.16873620	     11.18230340	     13.87327788	     37.10073691	    -29.99505475	    -45.00000000	    -45.00000000	  -2084.20466776	    981.35041242	    136.27465379	   -179.99999979	    726.14172398	     41.68854648	     10.93723450	    -21.19291049
      6.63000000	    -24.24154474	    -34.59958200	     50.70674245	    -69.47935397	    774.41167696	      8.98222797	      7.58545397	    -45.00000000	     36.42283486	    -45.00000000	    -45.00000000	   2063.79351076	  -2636.32220759	    150.99365186	   -105.39319081	   1089.95756308	     26.08738640	     17.09422399	     10.96255899	     14.02513886	     37.03832489	    -29.82256763	    -45.00000000	    -45.00000000	  -2084.47198638	    981.08308601	    136.94348826	   -179.99999979	    726.15728384	     41.81545576	     10.86919136	    -21.15385196
      6.64000000	    -24.31285240	    -34.29148919	     50.32866263	    -67.19062883	    774.23254480	      8.90330682	      7.66429468	    -45.00000000	     36.68288864	    -45.00000000	    -44.33722488	   2063.67605680	  -2636.73934276	    150.83219808	   -104.72853948	   1089.82327535	     27.22643276	     17.09452965	     10.99857420	     13.79418341	     37.05898441	    -29.73351210	    -45.00000000	    -45.00000000	  -2084.49078984	    981.00817110	    136.32550716	   -179.99999979	    725.92888198	     41.99189377	     10.95489762	    -21.14569469
      6.65000000	    -23.61112939	    -34.66184060	     51.64275775	    -65.09087171	    774.12172275	      8.82033422	      7.52569791	    -45.00000000	     36.23807173	    -45.00000000	    -45.00000000	   2063.87265569	  -2636.60955411	    151.18922441	   -105.04992523	   1089.70774954	     28.13740774	     17.01418569	     10.61126480	     14.00591879	     37.06088517	    -29.63915768	    -45.00000000	    -45.00000000	  -2084.81069561	    980.76969132	    137.12789127	   -179.99999979	    725.84990384	     42.03033067	     10.82560739	    -21.04743683
      6.66000000	    -23.77974059	    -34.37527331	     51.12997828	    -63.17557974	    774.07165445	      8.74085979	      7.67724117	    -45.00000000	     36.74995328	    -45.00000000	    -44.13231464	   2063.73747545	  -2637.10047819	    151.09343111	   -104.53992929	   1089.70120815	     29.18883570	     17.09970798	     10.97388685	     13.70857019	     36.94638704	    -29.38988874	    -45.00000000	    -45.00000000	  -2084.64764254	    980.91992399	    136.19057192	   -179.99999979	    725.61626000	     42.13784616	     11.00635730	    -21.05410649
      6.67000000	    -23.29218048	    -34.45593140	     51.88518743	    -61.43304503	    774.07430860	      8.67198391	      7.49207447	    -45.00000000	     36.38762536	    -45.00000000	    -45.00000000	   2063.94879159	  -2636.87936994	    150.98583859	   -104.84728337	   1089.66876389	     30.20884227	     17.07535587	     10.57746599	     13.83661880	     37.05549822	    -29.30214031	    -45.00000000	    -45.00000000	  -2084.89601163	    980.69152421	    136.53026735	   -179.99999979	    725.57304992	     42.13468734	     10.89869793	    -20.98629412
